PathFileType	4	(X/Y/Z)	C:\Users\86182\Documents\cortex\Trimmed_M4_L12.trc
DataRate	CameraRate	NumFrames	NumMarkers	Units	OrigDataRate	OrigDataStartFrame	OrigNumFrames
100.00	100.00	       98	2	mm	100.00	541	       901
Frame#	Time	gripper			box			
		X1	Y1	Z1	X2	Y2	Z2	

541	5.400	274.50934	150.39766	292.48755	276.78473	147.77151	157.14670	
542	5.410	274.51050	150.39824	292.48761	276.78354	147.77199	157.14644	
543	5.420	274.51172	150.39883	292.48767	276.78320	147.77223	157.14581	
544	5.430	274.51285	150.39940	292.48773	276.78403	147.77209	157.14500	
545	5.440	274.51389	150.39992	292.48779	276.78625	147.77151	157.14407	
546	5.450	274.51495	150.40044	292.48785	276.78983	147.77054	157.14304	
547	5.460	274.51602	150.40097	292.48792	276.79422	147.76936	157.14189	
548	5.470	274.51703	150.40146	292.48798	276.79886	147.76816	157.14067	
549	5.480	274.51794	150.40192	292.48801	276.80325	147.76704	157.13942	
550	5.490	274.51874	150.40230	292.48804	276.80734	147.76602	157.13809	
551	5.500	274.51923	150.40256	292.48810	276.81088	147.76514	157.13681	
552	5.510	274.51944	150.40266	292.48810	276.81302	147.76457	157.13596	
553	5.520	274.51947	150.40268	292.48810	276.81299	147.76448	157.13589	
554	5.530	274.51926	150.40256	292.48807	276.81067	147.76488	157.13675	
555	5.540	274.51862	150.40225	292.48804	276.80655	147.76567	157.13831	
556	5.550	274.51746	150.40167	292.48798	276.80145	147.76669	157.14035	
557	5.560	274.51575	150.40082	292.48792	276.79642	147.76778	157.14244	
558	5.570	274.51367	150.39981	292.48779	276.79221	147.76874	157.14432	
559	5.580	274.51175	150.39885	292.48767	276.78922	147.76950	157.14575	
560	5.590	274.51050	150.39824	292.48761	276.78735	147.77003	157.14677	
561	5.600	274.51044	150.39819	292.48758	276.78635	147.77037	157.14737	
562	5.610	274.51154	150.39874	292.48764	276.78589	147.77052	157.14758	
563	5.620	274.51346	150.39969	292.48773	276.78568	147.77057	157.14752	
564	5.630	274.51563	150.40076	292.48785	276.78549	147.77052	157.14722	
565	5.640	274.51746	150.40166	292.48795	276.78516	147.77045	157.14679	
566	5.650	274.51877	150.40231	292.48804	276.78464	147.77039	157.14633	
567	5.660	274.51990	150.40286	292.48810	276.78412	147.77039	157.14597	
568	5.670	274.52148	150.40366	292.48819	276.78384	147.77045	157.14572	
569	5.680	274.52405	150.40492	292.48831	276.78412	147.77052	157.14568	
570	5.690	274.52756	150.40666	292.48849	276.78510	147.77051	157.14575	
571	5.700	274.53137	150.40855	292.48871	276.78662	147.77036	157.14578	
572	5.710	274.53452	150.41011	292.48886	276.78851	147.77005	157.14557	
573	5.720	274.53616	150.41092	292.48895	276.79056	147.76961	157.14505	
574	5.730	274.53598	150.41083	292.48895	276.79251	147.76907	157.14426	
575	5.740	274.53394	150.40982	292.48883	276.79410	147.76848	157.14322	
576	5.750	274.53040	150.40808	292.48865	276.79501	147.76791	157.14212	
577	5.760	274.52606	150.40593	292.48843	276.79489	147.76749	157.14120	
578	5.770	274.52179	150.40381	292.48822	276.79361	147.76732	157.14072	
579	5.780	274.51849	150.40219	292.48804	276.79144	147.76740	157.14075	
580	5.790	274.51682	150.40135	292.48795	276.78925	147.76762	157.14114	
581	5.800	274.51700	150.40144	292.48795	276.78775	147.76793	157.14185	
582	5.810	274.51877	150.40233	292.48804	276.78720	147.76831	157.14273	
583	5.820	274.52145	150.40364	292.48816	276.78738	147.76875	157.14374	
584	5.830	274.52411	150.40495	292.48831	276.78784	147.76918	157.14471	
585	5.840	274.52597	150.40587	292.48840	276.78833	147.76953	157.14548	
586	5.850	274.52649	150.40613	292.48843	276.78888	147.76978	157.14603	
587	5.860	274.52527	150.40553	292.48837	276.78943	147.76990	157.14630	
588	5.870	274.52249	150.40416	292.48822	276.78992	147.76996	157.14642	
589	5.880	274.51877	150.40233	292.48804	276.79019	147.76999	157.14647	
590	5.890	274.51489	150.40041	292.48785	276.79016	147.77005	157.14658	
591	5.900	274.51169	150.39882	292.48767	276.78983	147.77014	157.14676	
592	5.910	274.50974	150.39786	292.48755	276.78934	147.77026	157.14697	
593	5.920	274.50931	150.39764	292.48755	276.78879	147.77037	157.14719	
594	5.930	274.51038	150.39818	292.48761	276.78827	147.77045	157.14734	
595	5.940	274.51270	150.39932	292.48773	276.78772	147.77046	157.14740	
596	5.950	274.51593	150.40092	292.48792	276.78711	147.77039	157.14731	
597	5.960	274.51959	150.40273	292.48810	276.78638	147.77022	157.14705	
598	5.970	274.52277	150.40430	292.48825	276.78540	147.76996	157.14661	
599	5.980	274.52435	150.40508	292.48834	276.78418	147.76959	157.14603	
600	5.990	274.52368	150.40474	292.48828	276.78278	147.76918	157.14532	
601	6.000	274.52081	150.40334	292.48816	276.78143	147.76880	157.14465	
602	6.010	274.51663	150.40128	292.48792	276.78052	147.76862	157.14426	
603	6.020	274.51224	150.39909	292.48767	276.78036	147.76871	157.14429	
604	6.030	274.50854	150.39728	292.48749	276.78104	147.76906	157.14474	
605	6.040	274.50613	150.39609	292.48737	276.78220	147.76952	157.14542	
606	6.050	274.50522	150.39561	292.48730	276.78357	147.76994	157.14609	
607	6.060	274.50568	150.39584	292.48737	276.78497	147.77023	157.14664	
608	6.070	274.50723	150.39662	292.48743	276.78638	147.77034	157.14691	
609	6.080	274.50943	150.39769	292.48755	276.78790	147.77028	157.14688	
610	6.090	274.51172	150.39883	292.48767	276.78970	147.77003	157.14648	
611	6.100	274.51392	150.39992	292.48779	276.79181	147.76962	157.14575	
612	6.110	274.51605	150.40097	292.48788	276.79419	147.76910	157.14474	
613	6.120	274.51825	150.40207	292.48801	276.79663	147.76854	157.14365	
614	6.130	274.52057	150.40320	292.48813	276.79868	147.76805	157.14264	
615	6.140	274.52286	150.40434	292.48822	276.79993	147.76776	157.14194	
616	6.150	274.52487	150.40533	292.48834	276.79999	147.76776	157.14169	
617	6.160	274.52618	150.40598	292.48840	276.79871	147.76808	157.14198	
618	6.170	274.52646	150.40613	292.48843	276.79651	147.76865	157.14264	
619	6.180	274.52579	150.40579	292.48840	276.79388	147.76930	157.14348	
620	6.190	274.52429	150.40506	292.48831	276.79129	147.76994	157.14438	
621	6.200	274.52219	150.40402	292.48822	276.78909	147.77046	157.14523	
622	6.210	274.51990	150.40288	292.48810	276.78760	147.77077	157.14598	
623	6.220	274.51804	150.40196	292.48798	276.78693	147.77086	157.14653	
624	6.230	274.51749	150.40169	292.48798	276.78702	147.77075	157.14679	
625	6.240	274.51892	150.40240	292.48804	276.78781	147.77051	157.14673	
626	6.250	274.52274	150.40428	292.48825	276.78922	147.77013	157.14636	
627	6.260	274.52875	150.40724	292.48859	276.79111	147.76967	157.14569	
628	6.270	274.53619	150.41092	292.48898	276.79321	147.76917	157.14487	
629	6.280	274.54376	150.41466	292.48938	276.79520	147.76871	157.14404	
630	6.290	274.55002	150.41776	292.48972	276.79669	147.76837	157.14340	
631	6.300	274.55392	150.41969	292.48993	276.79761	147.76816	157.14297	
632	6.310	274.55490	150.42017	292.48996	276.79807	147.76807	157.14276	
633	6.320	274.55270	150.41908	292.48984	276.79828	147.76802	157.14267	
634	6.330	274.54785	150.41669	292.48956	276.79819	147.76804	157.14268	
635	6.340	274.54141	150.41350	292.48923	276.79755	147.76819	157.14297	
636	6.350	274.53479	150.41023	292.48889	276.79602	147.76854	157.14362	
637	6.360	274.52933	150.40753	292.48859	276.79391	147.76901	157.14453	
638	6.370	274.52579	150.40579	292.48840	276.79166	147.76952	157.14552	
